<svg width="272" height="272" viewBox="0 0 272 272" fill="none" xmlns="http://www.w3.org/2000/svg">
<path d="M136 0V272C172.069 272 206.662 257.671 232.167 232.167C257.671 206.662 272 172.069 272 136C272 99.9306 257.671 65.3384 232.167 39.8335C206.662 14.3285 172.069 0 136 0V0Z" fill="black"/>
<path d="M136 272L136 -7.62939e-06C99.9306 -7.62939e-06 65.3384 14.3285 39.8335 39.8335C14.3285 65.3384 -3.8147e-06 99.9306 -3.8147e-06 136C-3.8147e-06 172.069 14.3285 206.662 39.8335 232.167C65.3384 257.671 99.9306 272 136 272V272Z" fill="white"/>
</svg>
